<mxfile host="app.diagrams.net" agent="Mozilla/5.0 (Windows NT 10.0; Win64; x64) AppleWebKit/537.36 (KHTML, like Gecko) Chrome/127.0.0.0 Safari/537.36" version="24.7.5">
  <diagram id="prtHgNgQTEPvFCAcTncT" name="Page-1">
    <mxGraphModel dx="1198" dy="778" grid="1" gridSize="10" guides="1" tooltips="1" connect="1" arrows="1" fold="1" page="1" pageScale="1" pageWidth="1654" pageHeight="2336" math="0" shadow="0">
      <root>
        <mxCell id="0" />
        <mxCell id="1" parent="0" />
        <mxCell id="dNxyNK7c78bLwvsdeMH5-19" value="&amp;nbsp; &amp;nbsp; &amp;nbsp; &amp;nbsp; &amp;nbsp; &amp;nbsp; &amp;nbsp; &amp;nbsp; &amp;nbsp;Patient&amp;nbsp;&lt;span style=&quot;background-color: initial;&quot;&gt;Appointment&amp;nbsp;&lt;/span&gt;" style="swimlane;html=1;childLayout=stackLayout;resizeParent=1;resizeParentMax=0;horizontal=0;startSize=20;horizontalStack=0;" parent="1" vertex="1">
          <mxGeometry x="20" y="100" width="1630" height="760" as="geometry" />
        </mxCell>
        <mxCell id="dNxyNK7c78bLwvsdeMH5-20" value="Patient&amp;nbsp;" style="swimlane;html=1;startSize=20;horizontal=0;" parent="dNxyNK7c78bLwvsdeMH5-19" vertex="1">
          <mxGeometry x="20" width="1610" height="190" as="geometry" />
        </mxCell>
        <mxCell id="UP25xcC5SBSHYGVBrl4b-18" style="edgeStyle=orthogonalEdgeStyle;rounded=0;orthogonalLoop=1;jettySize=auto;html=1;" edge="1" parent="dNxyNK7c78bLwvsdeMH5-20" source="UP25xcC5SBSHYGVBrl4b-8" target="UP25xcC5SBSHYGVBrl4b-17">
          <mxGeometry relative="1" as="geometry" />
        </mxCell>
        <mxCell id="UP25xcC5SBSHYGVBrl4b-8" value="" style="shape=actor;whiteSpace=wrap;html=1;" vertex="1" parent="dNxyNK7c78bLwvsdeMH5-20">
          <mxGeometry x="40" y="45" width="40" height="40" as="geometry" />
        </mxCell>
        <mxCell id="UP25xcC5SBSHYGVBrl4b-10" value="patient" style="text;html=1;align=center;verticalAlign=middle;resizable=0;points=[];autosize=1;strokeColor=none;fillColor=none;" vertex="1" parent="dNxyNK7c78bLwvsdeMH5-20">
          <mxGeometry x="30" y="110" width="60" height="30" as="geometry" />
        </mxCell>
        <mxCell id="UP25xcC5SBSHYGVBrl4b-25" style="edgeStyle=orthogonalEdgeStyle;rounded=0;orthogonalLoop=1;jettySize=auto;html=1;entryX=0;entryY=0.5;entryDx=0;entryDy=0;" edge="1" parent="dNxyNK7c78bLwvsdeMH5-20" source="UP25xcC5SBSHYGVBrl4b-17" target="UP25xcC5SBSHYGVBrl4b-13">
          <mxGeometry relative="1" as="geometry" />
        </mxCell>
        <mxCell id="UP25xcC5SBSHYGVBrl4b-26" value="Yes" style="edgeLabel;html=1;align=center;verticalAlign=middle;resizable=0;points=[];" vertex="1" connectable="0" parent="UP25xcC5SBSHYGVBrl4b-25">
          <mxGeometry x="-0.1131" relative="1" as="geometry">
            <mxPoint as="offset" />
          </mxGeometry>
        </mxCell>
        <mxCell id="UP25xcC5SBSHYGVBrl4b-146" style="edgeStyle=orthogonalEdgeStyle;rounded=0;orthogonalLoop=1;jettySize=auto;html=1;entryX=0;entryY=0.5;entryDx=0;entryDy=0;" edge="1" parent="dNxyNK7c78bLwvsdeMH5-20" source="UP25xcC5SBSHYGVBrl4b-17" target="UP25xcC5SBSHYGVBrl4b-103">
          <mxGeometry relative="1" as="geometry">
            <Array as="points">
              <mxPoint x="165" y="123" />
            </Array>
          </mxGeometry>
        </mxCell>
        <mxCell id="UP25xcC5SBSHYGVBrl4b-147" value="No" style="edgeLabel;html=1;align=center;verticalAlign=middle;resizable=0;points=[];" vertex="1" connectable="0" parent="UP25xcC5SBSHYGVBrl4b-146">
          <mxGeometry x="-0.7069" y="4" relative="1" as="geometry">
            <mxPoint x="-4" as="offset" />
          </mxGeometry>
        </mxCell>
        <mxCell id="UP25xcC5SBSHYGVBrl4b-17" value="" style="points=[[0.25,0.25,0],[0.5,0,0],[0.75,0.25,0],[1,0.5,0],[0.75,0.75,0],[0.5,1,0],[0.25,0.75,0],[0,0.5,0]];shape=mxgraph.bpmn.gateway2;html=1;verticalLabelPosition=bottom;labelBackgroundColor=#ffffff;verticalAlign=top;align=center;perimeter=rhombusPerimeter;outlineConnect=0;outline=none;symbol=none;" vertex="1" parent="dNxyNK7c78bLwvsdeMH5-20">
          <mxGeometry x="140" y="40" width="50" height="50" as="geometry" />
        </mxCell>
        <mxCell id="UP25xcC5SBSHYGVBrl4b-21" value="&lt;span style=&quot;text-wrap: nowrap; background-color: rgb(255, 255, 255);&quot;&gt;&amp;nbsp;Has the patient seen&lt;/span&gt;&lt;div style=&quot;text-wrap: nowrap;&quot;&gt;&amp;nbsp;a GP before?&lt;/div&gt;" style="text;html=1;align=center;verticalAlign=middle;whiteSpace=wrap;rounded=0;" vertex="1" parent="dNxyNK7c78bLwvsdeMH5-20">
          <mxGeometry x="100" y="15" width="130" height="30" as="geometry" />
        </mxCell>
        <mxCell id="UP25xcC5SBSHYGVBrl4b-13" value="&lt;font style=&quot;font-size: 14px;&quot;&gt;Call The Doctor for Make a Appointment&amp;nbsp;&lt;/font&gt;" style="rounded=1;whiteSpace=wrap;html=1;absoluteArcSize=1;arcSize=14;strokeWidth=2;" vertex="1" parent="dNxyNK7c78bLwvsdeMH5-20">
          <mxGeometry x="667" y="32.5" width="110" height="65" as="geometry" />
        </mxCell>
        <mxCell id="UP25xcC5SBSHYGVBrl4b-103" value="&lt;font style=&quot;font-size: 14px;&quot;&gt;Search for Nearby Clinics Online&lt;/font&gt;" style="rounded=1;whiteSpace=wrap;html=1;absoluteArcSize=1;arcSize=14;strokeWidth=2;" vertex="1" parent="dNxyNK7c78bLwvsdeMH5-20">
          <mxGeometry x="230" y="97.5" width="90" height="50" as="geometry" />
        </mxCell>
        <mxCell id="UP25xcC5SBSHYGVBrl4b-149" style="edgeStyle=orthogonalEdgeStyle;rounded=0;orthogonalLoop=1;jettySize=auto;html=1;" edge="1" parent="dNxyNK7c78bLwvsdeMH5-20" source="UP25xcC5SBSHYGVBrl4b-104" target="UP25xcC5SBSHYGVBrl4b-148">
          <mxGeometry relative="1" as="geometry" />
        </mxCell>
        <mxCell id="UP25xcC5SBSHYGVBrl4b-104" value="&lt;font style=&quot;font-size: 12px;&quot;&gt;Fill Out the Registration Form on the Website&lt;/font&gt;" style="rounded=1;whiteSpace=wrap;html=1;absoluteArcSize=1;arcSize=14;strokeWidth=2;" vertex="1" parent="dNxyNK7c78bLwvsdeMH5-20">
          <mxGeometry x="370" y="97.5" width="80" height="55" as="geometry" />
        </mxCell>
        <mxCell id="UP25xcC5SBSHYGVBrl4b-145" style="edgeStyle=orthogonalEdgeStyle;rounded=0;orthogonalLoop=1;jettySize=auto;html=1;" edge="1" parent="dNxyNK7c78bLwvsdeMH5-20" source="UP25xcC5SBSHYGVBrl4b-103">
          <mxGeometry relative="1" as="geometry">
            <mxPoint x="370" y="122" as="targetPoint" />
          </mxGeometry>
        </mxCell>
        <mxCell id="UP25xcC5SBSHYGVBrl4b-150" style="edgeStyle=orthogonalEdgeStyle;rounded=0;orthogonalLoop=1;jettySize=auto;html=1;" edge="1" parent="dNxyNK7c78bLwvsdeMH5-20" source="UP25xcC5SBSHYGVBrl4b-148" target="UP25xcC5SBSHYGVBrl4b-13">
          <mxGeometry relative="1" as="geometry" />
        </mxCell>
        <mxCell id="UP25xcC5SBSHYGVBrl4b-148" value="&lt;font style=&quot;font-size: 14px;&quot;&gt;Receive Confirmation Email&lt;/font&gt;" style="rounded=1;whiteSpace=wrap;html=1;absoluteArcSize=1;arcSize=14;strokeWidth=2;" vertex="1" parent="dNxyNK7c78bLwvsdeMH5-20">
          <mxGeometry x="480" y="97.5" width="100" height="55" as="geometry" />
        </mxCell>
        <mxCell id="UP25xcC5SBSHYGVBrl4b-154" value="" style="endArrow=none;dashed=1;html=1;dashPattern=1 3;strokeWidth=2;rounded=0;exitX=0.435;exitY=-0.048;exitDx=0;exitDy=0;exitPerimeter=0;" edge="1" parent="dNxyNK7c78bLwvsdeMH5-20" source="UP25xcC5SBSHYGVBrl4b-151">
          <mxGeometry width="50" height="50" relative="1" as="geometry">
            <mxPoint x="670" y="150" as="sourcePoint" />
            <mxPoint x="720" y="100" as="targetPoint" />
          </mxGeometry>
        </mxCell>
        <mxCell id="UP25xcC5SBSHYGVBrl4b-190" value="Patient comes for Appointment" style="whiteSpace=wrap;html=1;align=left;strokeWidth=2;pointerEvents=1;" vertex="1" parent="dNxyNK7c78bLwvsdeMH5-20">
          <mxGeometry x="1410" y="15" width="90" height="46.25" as="geometry" />
        </mxCell>
        <mxCell id="UP25xcC5SBSHYGVBrl4b-192" value="Patient comes for Appointment" style="whiteSpace=wrap;html=1;align=left;strokeWidth=2;pointerEvents=1;" vertex="1" parent="dNxyNK7c78bLwvsdeMH5-20">
          <mxGeometry x="1410" y="110" width="90" height="46.25" as="geometry" />
        </mxCell>
        <mxCell id="UP25xcC5SBSHYGVBrl4b-197" style="edgeStyle=orthogonalEdgeStyle;rounded=0;orthogonalLoop=1;jettySize=auto;html=1;" edge="1" parent="dNxyNK7c78bLwvsdeMH5-20" source="UP25xcC5SBSHYGVBrl4b-195" target="UP25xcC5SBSHYGVBrl4b-190">
          <mxGeometry relative="1" as="geometry" />
        </mxCell>
        <mxCell id="UP25xcC5SBSHYGVBrl4b-198" style="edgeStyle=orthogonalEdgeStyle;rounded=0;orthogonalLoop=1;jettySize=auto;html=1;entryX=0;entryY=0.75;entryDx=0;entryDy=0;" edge="1" parent="dNxyNK7c78bLwvsdeMH5-20" source="UP25xcC5SBSHYGVBrl4b-195" target="UP25xcC5SBSHYGVBrl4b-192">
          <mxGeometry relative="1" as="geometry" />
        </mxCell>
        <mxCell id="UP25xcC5SBSHYGVBrl4b-195" value="send the message&amp;nbsp;" style="strokeWidth=2;html=1;shape=mxgraph.flowchart.decision;whiteSpace=wrap;" vertex="1" parent="dNxyNK7c78bLwvsdeMH5-20">
          <mxGeometry x="1270" y="32.5" width="100" height="100" as="geometry" />
        </mxCell>
        <mxCell id="UP25xcC5SBSHYGVBrl4b-199" value="" style="strokeWidth=2;html=1;shape=mxgraph.flowchart.annotation_2;align=left;labelPosition=right;pointerEvents=1;direction=west;" vertex="1" parent="dNxyNK7c78bLwvsdeMH5-20">
          <mxGeometry x="1500" y="32.5" width="40" height="107.5" as="geometry" />
        </mxCell>
        <mxCell id="UP25xcC5SBSHYGVBrl4b-200" value="End&amp;nbsp;" style="points=[[0.145,0.145,0],[0.5,0,0],[0.855,0.145,0],[1,0.5,0],[0.855,0.855,0],[0.5,1,0],[0.145,0.855,0],[0,0.5,0]];shape=mxgraph.bpmn.event;html=1;verticalLabelPosition=bottom;labelBackgroundColor=#ffffff;verticalAlign=top;align=center;perimeter=ellipsePerimeter;outlineConnect=0;aspect=fixed;outline=throwing;symbol=general;" vertex="1" parent="dNxyNK7c78bLwvsdeMH5-20">
          <mxGeometry x="1530" y="62" width="50" height="50" as="geometry" />
        </mxCell>
        <mxCell id="dNxyNK7c78bLwvsdeMH5-21" value="Reception" style="swimlane;html=1;startSize=20;horizontal=0;" parent="dNxyNK7c78bLwvsdeMH5-19" vertex="1">
          <mxGeometry x="20" y="190" width="1610" height="570" as="geometry" />
        </mxCell>
        <mxCell id="UP25xcC5SBSHYGVBrl4b-155" style="edgeStyle=orthogonalEdgeStyle;rounded=0;orthogonalLoop=1;jettySize=auto;html=1;" edge="1" parent="dNxyNK7c78bLwvsdeMH5-21" source="UP25xcC5SBSHYGVBrl4b-151" target="UP25xcC5SBSHYGVBrl4b-153">
          <mxGeometry relative="1" as="geometry" />
        </mxCell>
        <mxCell id="UP25xcC5SBSHYGVBrl4b-151" value="Ask about the patient&#39;s basic condition and Information" style="rounded=1;whiteSpace=wrap;html=1;absoluteArcSize=1;arcSize=14;strokeWidth=2;" vertex="1" parent="dNxyNK7c78bLwvsdeMH5-21">
          <mxGeometry x="670" y="60" width="110" height="60" as="geometry" />
        </mxCell>
        <mxCell id="UP25xcC5SBSHYGVBrl4b-170" style="edgeStyle=orthogonalEdgeStyle;rounded=0;orthogonalLoop=1;jettySize=auto;html=1;entryX=0.5;entryY=0;entryDx=0;entryDy=0;" edge="1" parent="dNxyNK7c78bLwvsdeMH5-21" source="UP25xcC5SBSHYGVBrl4b-153" target="UP25xcC5SBSHYGVBrl4b-156">
          <mxGeometry relative="1" as="geometry" />
        </mxCell>
        <mxCell id="UP25xcC5SBSHYGVBrl4b-153" value="Operator checks for preferred time slot" style="rounded=1;whiteSpace=wrap;html=1;absoluteArcSize=1;arcSize=14;strokeWidth=2;" vertex="1" parent="dNxyNK7c78bLwvsdeMH5-21">
          <mxGeometry x="675" y="170" width="100" height="70" as="geometry" />
        </mxCell>
        <mxCell id="UP25xcC5SBSHYGVBrl4b-156" value="If unavailable, offers next best slot." style="rounded=1;whiteSpace=wrap;html=1;absoluteArcSize=1;arcSize=14;strokeWidth=2;" vertex="1" parent="dNxyNK7c78bLwvsdeMH5-21">
          <mxGeometry x="670" y="275" width="110" height="55" as="geometry" />
        </mxCell>
        <mxCell id="UP25xcC5SBSHYGVBrl4b-173" style="edgeStyle=orthogonalEdgeStyle;rounded=0;orthogonalLoop=1;jettySize=auto;html=1;entryX=0;entryY=0.5;entryDx=0;entryDy=0;exitX=0;exitY=0.5;exitDx=0;exitDy=0;exitPerimeter=0;" edge="1" parent="dNxyNK7c78bLwvsdeMH5-21" source="UP25xcC5SBSHYGVBrl4b-158" target="UP25xcC5SBSHYGVBrl4b-153">
          <mxGeometry relative="1" as="geometry">
            <Array as="points">
              <mxPoint x="630" y="420" />
              <mxPoint x="630" y="205" />
            </Array>
          </mxGeometry>
        </mxCell>
        <mxCell id="UP25xcC5SBSHYGVBrl4b-174" value="No" style="edgeLabel;html=1;align=center;verticalAlign=middle;resizable=0;points=[];" vertex="1" connectable="0" parent="UP25xcC5SBSHYGVBrl4b-173">
          <mxGeometry x="0.2236" y="4" relative="1" as="geometry">
            <mxPoint as="offset" />
          </mxGeometry>
        </mxCell>
        <mxCell id="UP25xcC5SBSHYGVBrl4b-158" value="Patient Agree" style="strokeWidth=2;html=1;shape=mxgraph.flowchart.decision;whiteSpace=wrap;" vertex="1" parent="dNxyNK7c78bLwvsdeMH5-21">
          <mxGeometry x="675" y="370" width="100" height="100" as="geometry" />
        </mxCell>
        <mxCell id="UP25xcC5SBSHYGVBrl4b-159" style="edgeStyle=orthogonalEdgeStyle;rounded=0;orthogonalLoop=1;jettySize=auto;html=1;entryX=0.5;entryY=0;entryDx=0;entryDy=0;entryPerimeter=0;" edge="1" parent="dNxyNK7c78bLwvsdeMH5-21" source="UP25xcC5SBSHYGVBrl4b-156" target="UP25xcC5SBSHYGVBrl4b-158">
          <mxGeometry relative="1" as="geometry" />
        </mxCell>
        <mxCell id="UP25xcC5SBSHYGVBrl4b-166" value="" style="edgeStyle=orthogonalEdgeStyle;rounded=0;orthogonalLoop=1;jettySize=auto;html=1;" edge="1" parent="dNxyNK7c78bLwvsdeMH5-21" source="UP25xcC5SBSHYGVBrl4b-163" target="UP25xcC5SBSHYGVBrl4b-165">
          <mxGeometry relative="1" as="geometry" />
        </mxCell>
        <mxCell id="UP25xcC5SBSHYGVBrl4b-165" value="Communication mode chosen" style="whiteSpace=wrap;html=1;rounded=1;arcSize=14;strokeWidth=2;" vertex="1" parent="dNxyNK7c78bLwvsdeMH5-21">
          <mxGeometry x="980" y="390" width="120" height="60" as="geometry" />
        </mxCell>
        <mxCell id="UP25xcC5SBSHYGVBrl4b-167" value="" style="strokeWidth=2;html=1;shape=mxgraph.flowchart.annotation_2;align=left;labelPosition=right;pointerEvents=1;" vertex="1" parent="dNxyNK7c78bLwvsdeMH5-21">
          <mxGeometry x="1100" y="330" width="50" height="180" as="geometry" />
        </mxCell>
        <mxCell id="UP25xcC5SBSHYGVBrl4b-171" value="" style="edgeStyle=orthogonalEdgeStyle;rounded=0;orthogonalLoop=1;jettySize=auto;html=1;" edge="1" parent="dNxyNK7c78bLwvsdeMH5-21" source="UP25xcC5SBSHYGVBrl4b-158" target="UP25xcC5SBSHYGVBrl4b-163">
          <mxGeometry relative="1" as="geometry">
            <mxPoint x="1250" y="495" as="targetPoint" />
            <mxPoint x="960" y="618" as="sourcePoint" />
          </mxGeometry>
        </mxCell>
        <mxCell id="UP25xcC5SBSHYGVBrl4b-172" value="Yes" style="edgeLabel;html=1;align=center;verticalAlign=middle;resizable=0;points=[];" vertex="1" connectable="0" parent="UP25xcC5SBSHYGVBrl4b-171">
          <mxGeometry x="-0.3226" y="1" relative="1" as="geometry">
            <mxPoint as="offset" />
          </mxGeometry>
        </mxCell>
        <mxCell id="UP25xcC5SBSHYGVBrl4b-163" value="Confirming Additional Details and Specific Needs" style="rounded=1;whiteSpace=wrap;html=1;absoluteArcSize=1;arcSize=14;strokeWidth=2;" vertex="1" parent="dNxyNK7c78bLwvsdeMH5-21">
          <mxGeometry x="840" y="382.5" width="100" height="75" as="geometry" />
        </mxCell>
        <mxCell id="UP25xcC5SBSHYGVBrl4b-178" value="Mobile: SMS sent 5 days before appointment." style="rounded=1;whiteSpace=wrap;html=1;absoluteArcSize=1;arcSize=14;strokeWidth=2;" vertex="1" parent="dNxyNK7c78bLwvsdeMH5-21">
          <mxGeometry x="1150" y="310" width="120" height="47.5" as="geometry" />
        </mxCell>
        <mxCell id="UP25xcC5SBSHYGVBrl4b-179" value="Email: Email sent 5 days before appointment." style="rounded=1;whiteSpace=wrap;html=1;absoluteArcSize=1;arcSize=14;strokeWidth=2;" vertex="1" parent="dNxyNK7c78bLwvsdeMH5-21">
          <mxGeometry x="1150" y="480" width="120" height="47.5" as="geometry" />
        </mxCell>
        <mxCell id="UP25xcC5SBSHYGVBrl4b-186" value="" style="strokeWidth=2;html=1;shape=mxgraph.flowchart.annotation_2;align=left;labelPosition=right;pointerEvents=1;direction=west;" vertex="1" parent="dNxyNK7c78bLwvsdeMH5-21">
          <mxGeometry x="1270" y="330" width="50" height="180" as="geometry" />
        </mxCell>
        <mxCell id="UP25xcC5SBSHYGVBrl4b-196" style="edgeStyle=orthogonalEdgeStyle;rounded=0;orthogonalLoop=1;jettySize=auto;html=1;entryX=0.5;entryY=1;entryDx=0;entryDy=0;entryPerimeter=0;exitX=0;exitY=0.5;exitDx=0;exitDy=0;exitPerimeter=0;" edge="1" parent="dNxyNK7c78bLwvsdeMH5-19" source="UP25xcC5SBSHYGVBrl4b-186" target="UP25xcC5SBSHYGVBrl4b-195">
          <mxGeometry relative="1" as="geometry">
            <Array as="points">
              <mxPoint x="1340" y="132" />
            </Array>
          </mxGeometry>
        </mxCell>
      </root>
    </mxGraphModel>
  </diagram>
</mxfile>
